<?xml version="1.0" encoding="utf-8"?>
<!-- Generator: Adobe Illustrator 22.0.1, SVG Export Plug-In . SVG Version: 6.00 Build 0)  -->
<svg version="1.1" xmlns="http://www.w3.org/2000/svg" xmlns:xlink="http://www.w3.org/1999/xlink" x="0px" y="0px"
	 viewBox="0 0 256 256" style="enable-background:new 0 0 256 256;" xml:space="preserve">
<style type="text/css">
	.st0{fill:#606DAD;}
	.st1{fill:#2B3C92;}
	.st2{fill:#5BBFAF;}
	.st3{fill:#326F63;}
	.st4{fill:#101D49;}
</style>
<g id="Слой_1">
	<g id="XMLID_8_">
		<g>
			<path class="st0" d="M127.6,18.3c60.8,0,110,49.2,110,110s-49.2,110-110,110v-16.5c51.6,0,93.5-41.9,93.5-93.5
				c0-51.6-41.9-93.5-93.5-93.5V18.3z"/>
			<path class="st1" d="M127.6,221.8v16.5c-60.8,0-110-49.2-110-110s49.2-110,110-110v16.5c-51.6,0-93.5,41.9-93.5,93.5
				C34.1,179.9,75.9,221.8,127.6,221.8z"/>
		</g>
		<g>
		</g>
	</g>
</g>
<g id="Слой_2">
	<g>
		<g id="XMLID_7_">
			<g>
				<path class="st2" d="M153.5,154.2l-15.6-15.6c5.7-5.7,5.7-15,0-20.7l81-81L153.5,154.2z"/>
				<path class="st1" d="M153.5,154.2L36.4,219.5l80.8-80.8c5.7,5.7,15,5.7,20.7,0L153.5,154.2z"/>
				<path class="st3" d="M218.9,37l-81,81c-5.7-5.7-15-5.7-20.7,0l-15.6-15.6L218.9,37z"/>
				<path class="st4" d="M117.2,117.9c-5.7,5.7-5.7,15,0,20.7l-80.8,80.8l65.3-117.1L117.2,117.9z"/>
			</g>
			<g>
			</g>
		</g>
	</g>
</g>
</svg>
